<svg width="26" height="26" viewBox="0 0 26 26" xmlns="http://www.w3.org/2000/svg">
<path fill-rule="evenodd" clip-rule="evenodd" d="M1.58498 1.60996C1.95966 1.2354 2.46777 1.02498 2.99756 1.02498C3.52736 1.02498 4.03546 1.2354 4.41014 1.60996L12.9875 10.1873L21.5649 1.60996C21.7492 1.41913 21.9697 1.26692 22.2134 1.16221C22.4572 1.0575 22.7194 1.00238 22.9846 1.00008C23.2499 0.99777 23.513 1.04832 23.7586 1.14878C24.0041 1.24924 24.2272 1.3976 24.4148 1.5852C24.6024 1.77279 24.7508 1.99587 24.8512 2.24142C24.9517 2.48696 25.0022 2.75006 24.9999 3.01535C24.9976 3.28064 24.9425 3.54282 24.8378 3.78658C24.7331 4.03034 24.5809 4.25081 24.39 4.43512L15.8127 13.0125L24.39 21.5899C24.754 21.9667 24.9554 22.4714 24.9508 22.9952C24.9463 23.5191 24.7361 24.0202 24.3657 24.3907C23.9953 24.7611 23.4941 24.9712 22.9703 24.9758C22.4464 24.9804 21.9417 24.779 21.5649 24.415L12.9875 15.8376L4.41014 24.415C4.03332 24.779 3.52862 24.9804 3.00475 24.9758C2.48089 24.9712 1.97977 24.7611 1.60932 24.3907C1.23888 24.0202 1.02875 23.5191 1.0242 22.9952C1.01965 22.4714 1.22103 21.9667 1.58498 21.5899L10.1624 13.0125L1.58498 4.43512C1.21042 4.06044 1 3.55234 1 3.02254C1 2.49275 1.21042 1.98464 1.58498 1.60996V1.60996Z"/>
</svg>
